<svg xmlns="http://www.w3.org/2000/svg" xmlns:xlink="http://www.w3.org/1999/xlink" width="138" height="138" viewBox="0 0 138 138"><defs><style>.a{fill:#003651;}.b{clip-path:url(#a);}.c{fill:#fff;}</style><clipPath id="a"><circle class="a" cx="69" cy="69" r="69" transform="translate(262 2652)"/></clipPath></defs><g class="b" transform="translate(-262 -2652)"><g transform="translate(264.994 2650)"><g transform="translate(34 39)"><g transform="translate(0 39.043)"><g transform="translate(0 0)"><path class="c" d="M57.953,94.25l-.015-.037c-1.16-2.713-3.879-3.716-7.1-2.617l-8.777,2.427A5.754,5.754,0,0,0,38.5,90.514l-.033-.012-9.648-3.275a9.951,9.951,0,0,0-8.028-3.694c-3.291,0-6.2,2.258-7.869,4.719H1.26A1.26,1.26,0,0,0,0,89.513V105.4a1.26,1.26,0,0,0,1.26,1.26H8.751a1.26,1.26,0,0,0,1.26-1.26v-1.088h3.513a1.26,1.26,0,0,0,1.26-1.26v-.363a8.932,8.932,0,0,1,4.6,1.652,76.247,76.247,0,0,0,7.569,3.865l.055.023a11.309,11.309,0,0,0,4.053.764,10.042,10.042,0,0,0,4.174-.894l19.4-6.946c.035-.012.069-.026.1-.042C56.594,100.255,59.357,97.851,57.953,94.25ZM7.491,104.137H2.52V90.772H7.491Zm4.773-2.348H10.011V90.772h2.253ZM53.733,98.8l-19.392,6.943-.057.022-.051.022a8.166,8.166,0,0,1-6.274.107,72.981,72.981,0,0,1-7.315-3.736,11.339,11.339,0,0,0-5.861-1.993V90.014c1.194-1.957,3.51-3.961,6.007-3.961a7.27,7.27,0,0,1,6.167,2.9,1.26,1.26,0,0,0,.668.533l10.013,3.4a2.827,2.827,0,0,1,2.056,3.335,2.455,2.455,0,0,1-3.016,1.694L25.391,94.335a1.26,1.26,0,1,0-.761,2.4l11.307,3.583.036.011a4.945,4.945,0,0,0,3.782-.439,4.941,4.941,0,0,0,2.363-2.985q.043-.153.077-.306l9.46-2.621c1.366-.467,3.16-.635,3.958,1.2C56.44,97.343,54.292,98.531,53.733,98.8Z" transform="translate(0 -83.534)"/></g></g><g transform="translate(3.741 0)"><g transform="translate(0 0)"><path class="c" d="M67.508,4.273H60.017a1.26,1.26,0,0,0-1.26,1.26V6.621H55.244a1.26,1.26,0,0,0-1.26,1.26v.363a8.933,8.933,0,0,1-4.6-1.652,76.235,76.235,0,0,0-7.569-3.865L41.758,2.7a10.719,10.719,0,0,0-8.227.129l-5.07,1.815L24.188.375a1.26,1.26,0,0,0-1.782,0L8.376,14.4a1.249,1.249,0,0,0,0,1.782L32.35,40.16a1.361,1.361,0,0,0,1.782,0L46.94,27.352c.333.029.679.044,1.037.044,3.292,0,6.2-2.258,7.869-4.719H67.508a1.26,1.26,0,0,0,1.26-1.26V5.533A1.26,1.26,0,0,0,67.508,4.273ZM23.3,3.048l2.872,2.872a5.493,5.493,0,0,1-5.743,0ZM13.92,18.167,11.049,15.3l2.872-2.872a5.493,5.493,0,0,1,0,5.743Zm19.321,19.32L30.37,34.617a5.485,5.485,0,0,1,5.742,0ZM37.927,32.8a8.006,8.006,0,0,0-9.372,0L15.736,19.982a8.006,8.006,0,0,0,0-9.373L18.61,7.735a8.006,8.006,0,0,0,9.373,0l2.725,2.725a4.994,4.994,0,0,0-3.749,2.747A7.181,7.181,0,1,0,35.216,22.1l4.254,1.444A8.044,8.044,0,0,0,40.8,29.925Zm-7.66-12.386.033.012,2.519.855a4.662,4.662,0,1,1-6.328-5.325A5.578,5.578,0,0,0,30.267,20.416ZM42.62,28.109a5.51,5.51,0,0,1-.8-2.62,9.8,9.8,0,0,0,2.222,1.2Zm11.364-7.194c-1.194,1.958-3.51,3.961-6.007,3.961a9.17,9.17,0,0,1-1.314-.092h0a7.216,7.216,0,0,1-4.667-2.554c-.026-.038-.135-.181-.151-.2a1.255,1.255,0,0,0-.694-.577l-10.017-3.4a2.827,2.827,0,0,1-2.056-3.334v-.006a2.455,2.455,0,0,1,3.015-1.69l11.288,3.577a1.26,1.26,0,0,0,.761-2.4L35.16,11.348l-.078-.078,0,0L30.432,6.619l3.995-1.43.043-.017.013-.005.051-.022a8.165,8.165,0,0,1,6.274-.107,72.98,72.98,0,0,1,7.315,3.736,11.338,11.338,0,0,0,5.861,1.993Zm4.773-.758H56.5V9.141h2.253Zm7.491,0H61.277V6.793h4.971Z" transform="translate(-8.003 -0.006)"/></g></g></g></g></g></svg>