<svg xmlns="http://www.w3.org/2000/svg" xmlns:xlink="http://www.w3.org/1999/xlink" width="138" height="138" viewBox="0 0 138 138"><defs><style>.a{fill:#003651;}.b{clip-path:url(#a);}.c{fill:#fff;}</style><clipPath id="a"><circle class="a" cx="69" cy="69" r="69" transform="translate(262 2244)"/></clipPath></defs><g class="b" transform="translate(-262 -2244)"><g transform="translate(298 2278.559)"><g transform="translate(4 6.08)"><path class="c" d="M93.232,87.22l-5.65-5.6a3.457,3.457,0,0,0-3.98-.652l-2.857-2.857a15.24,15.24,0,1,0-1.557,1.557l2.857,2.857A3.457,3.457,0,0,0,82.7,86.5l5.65,5.6a3.454,3.454,0,1,0,4.885-4.885ZM56.217,68.157a13.02,13.02,0,1,1,13.02,13.02A13.035,13.035,0,0,1,56.217,68.157Zm27.671,15.9a1.252,1.252,0,0,1,2.138-.886l.969.969-1.771,1.771-.969-.969A1.244,1.244,0,0,1,83.887,84.06Zm7.788,6.489a1.252,1.252,0,0,1-1.771,0l-3.124-3.077L88.552,85.7l3.123,3.077a1.252,1.252,0,0,1,0,1.771Z" transform="translate(-25.744 -24.693)"/><path class="c" d="M77.051,61.577a10.5,10.5,0,0,0-5.335,1.464,1.1,1.1,0,1,0,1.12,1.9,8.3,8.3,0,0,1,11.37,11.37,1.1,1.1,0,1,0,1.9,1.12,10.5,10.5,0,0,0-9.051-15.849Z" transform="translate(-33.246 -28.628)"/><path class="c" d="M77.387,83.126a8.3,8.3,0,0,1-11.37-11.37,1.1,1.1,0,0,0-1.9-1.12A10.5,10.5,0,0,0,78.507,85.022a1.1,1.1,0,0,0-1.12-1.9Z" transform="translate(-29.267 -32.507)"/><path class="c" d="M14.257,11.883H11.9a1.1,1.1,0,0,0,0,2.2h2.353a1.1,1.1,0,0,0,0-2.2Z" transform="translate(-4.919 -6)"/><path class="c" d="M54.21,12.984a1.1,1.1,0,0,0-1.1-1.1H24.867a1.1,1.1,0,1,0,0,2.2H53.109A1.1,1.1,0,0,0,54.21,12.984Z" transform="translate(-11.201 -6)"/><path class="c" d="M11.9,42.132a1.1,1.1,0,0,0,0,2.2h2.353a1.1,1.1,0,0,0,0-2.2Z" transform="translate(-4.919 -19.774)"/><path class="c" d="M24.867,42.132a1.1,1.1,0,1,0,0,2.2H53.109a1.1,1.1,0,1,0,0-2.2Z" transform="translate(-11.201 -19.774)"/><path class="c" d="M28.166,34.029H25.737v-2.5h6.548a1.1,1.1,0,0,0,0-2.2H3.454A1.254,1.254,0,0,1,2.2,28.07v-7.06a1.254,1.254,0,0,1,1.252-1.252H45.817a1.254,1.254,0,0,1,1.252,1.252v4.707a1.1,1.1,0,1,0,2.2,0V21.009a3.458,3.458,0,0,0-3.454-3.454H25.737v-2.5h20.08A3.458,3.458,0,0,0,49.271,11.6V4.535A3.458,3.458,0,0,0,45.817,1.08H3.454A3.458,3.458,0,0,0,0,4.535V11.6A3.458,3.458,0,0,0,3.454,15.05h20.08v2.5H3.454A3.458,3.458,0,0,0,0,21.009v7.06a3.458,3.458,0,0,0,3.454,3.455h20.08v2.5H3.454A3.458,3.458,0,0,0,0,37.483v7.06A3.458,3.458,0,0,0,3.454,48H25.813a1.1,1.1,0,1,0,0-2.2H3.454A1.254,1.254,0,0,1,2.2,44.544v-7.06a1.254,1.254,0,0,1,1.252-1.252H28.166a1.1,1.1,0,1,0,0-2.2ZM2.2,11.6V4.535A1.254,1.254,0,0,1,3.454,3.282H45.817A1.254,1.254,0,0,1,47.07,4.535V11.6a1.254,1.254,0,0,1-1.252,1.252H3.454A1.254,1.254,0,0,1,2.2,11.6Z" transform="translate(0 -1.08)"/><path class="c" d="M11.9,72.38a1.1,1.1,0,1,0,0,2.2h2.353a1.1,1.1,0,1,0,0-2.2Z" transform="translate(-4.919 -33.548)"/><path class="c" d="M24.867,72.38a1.1,1.1,0,1,0,0,2.2H36.635a1.1,1.1,0,1,0,0-2.2Z" transform="translate(-11.089 -33.548)"/></g></g></g></svg>