<svg xmlns="http://www.w3.org/2000/svg" xmlns:xlink="http://www.w3.org/1999/xlink" width="138" height="138" viewBox="0 0 138 138"><defs><style>.a{fill:#003651;}.b{clip-path:url(#a);}.c{fill:#fff;}</style><clipPath id="a"><circle class="a" cx="69" cy="69" r="69" transform="translate(262 2448)"/></clipPath></defs><g class="b" transform="translate(-262 -2448)"><g transform="translate(264 2445)"><g transform="translate(37 38.5)"><g transform="translate(8.313 38.792)"><path class="c" d="M35.26,83.271H18.635a1.385,1.385,0,0,1,0-2.771H35.26a1.385,1.385,0,0,1,0,2.771Z" transform="translate(-17.25 -80.5)"/></g><g transform="translate(8.313 47.104)"><path class="c" d="M32.49,100.521H18.635a1.385,1.385,0,0,1,0-2.771H32.49a1.385,1.385,0,0,1,0,2.771Z" transform="translate(-17.25 -97.75)"/></g><g transform="translate(18.01 8.313)"><path class="c" d="M42.917,28.333a5.542,5.542,0,1,1,5.542-5.542A5.547,5.547,0,0,1,42.917,28.333Zm0-8.313a2.771,2.771,0,1,0,2.771,2.771A2.775,2.775,0,0,0,42.917,20.021Z" transform="translate(-37.375 -17.25)"/></g><g transform="translate(12.469 22.167)"><path class="c" d="M46.656,57.083A1.386,1.386,0,0,1,45.271,55.7V52.927a4.161,4.161,0,0,0-4.156-4.156H32.8a4.161,4.161,0,0,0-4.156,4.156V55.7a1.385,1.385,0,0,1-2.771,0V52.927A6.937,6.937,0,0,1,32.8,46h8.313a6.937,6.937,0,0,1,6.927,6.927V55.7A1.386,1.386,0,0,1,46.656,57.083Z" transform="translate(-25.875 -46)"/></g><path class="c" d="M26.323,58.188H6.927A6.937,6.937,0,0,1,0,51.26V6.927A6.937,6.937,0,0,1,6.927,0h33.25A6.937,6.937,0,0,1,47.1,6.927V23.718a1.385,1.385,0,1,1-2.771,0V6.927a4.161,4.161,0,0,0-4.156-4.156H6.927A4.161,4.161,0,0,0,2.771,6.927V51.26a4.161,4.161,0,0,0,4.156,4.156h19.4a1.385,1.385,0,1,1,0,2.771Z"/><g transform="translate(30.479 30.479)"><path class="c" d="M81.26,99.271a18.01,18.01,0,1,1,18.01-18.01A18.031,18.031,0,0,1,81.26,99.271Zm0-33.25A15.24,15.24,0,1,0,96.5,81.26,15.256,15.256,0,0,0,81.26,66.021Z" transform="translate(-63.25 -63.25)"/></g><g transform="translate(38.791 41.561)"><path class="c" d="M87.426,100.1a1.4,1.4,0,0,1-.981-.4L80.9,94.156A1.385,1.385,0,0,1,82.863,92.2l4.494,4.494,8.723-9.969a1.386,1.386,0,0,1,2.086,1.826l-9.7,11.083a1.382,1.382,0,0,1-1,.471Z" transform="translate(-80.499 -86.247)"/></g></g></g></g></svg>